{
	"asset":{
		"generator":"Khronos glTF Blender I/O v4.0.44",
		"version":"2.0"
	},
	"scene":0,
	"scenes":[
		{
			"name":"Scene",
			"nodes":[
				0
			]
		}
	],
	"nodes":[
		{
			"mesh":0,
			"name":"Plane",
			"rotation":[
				0.7071068286895752,
				0,
				0,
				0.7071068286895752
			]
		}
	],
	"meshes":[
		{
			"name":"Plane",
			"primitives":[
				{
					"attributes":{
						"POSITION":0,
						"NORMAL":1
					},
					"indices":2
				}
			]
		}
	],
	"accessors":[
		{
			"bufferView":0,
			"componentType":5126,
			"count":368331,
			"max":[
				1.1094127893447876,
				0.17818006873130798,
				1.111091136932373
			],
			"min":[
				-1.0668113231658936,
				-0.22818006575107574,
				-0.8311198949813843
			],
			"type":"VEC3"
		},
		{
			"bufferView":1,
			"componentType":5126,
			"count":368331,
			"type":"VEC3"
		},
		{
			"bufferView":2,
			"componentType":5125,
			"count":925404,
			"type":"SCALAR"
		}
	],
	"bufferViews":[
		{
			"buffer":0,
			"byteLength":4419972,
			"byteOffset":0,
			"target":34962
		},
		{
			"buffer":0,
			"byteLength":4419972,
			"byteOffset":4419972,
			"target":34962
		},
		{
			"buffer":0,
			"byteLength":3701616,
			"byteOffset":8839944,
			"target":34963
		}
	],
	"buffers":[
		{
			"byteLength":12541560,
			"uri":"textbubble.bin"
		}
	]
}
